<svg width="262" height="60" viewBox="0 0 262 60" fill="none" xmlns="http://www.w3.org/2000/svg">
<rect width="60" height="60" rx="30" fill="#89C249"/>
<rect x="102" y="1" width="58" height="58" rx="29" fill="#282B38" stroke="#363A4D" stroke-width="2"/>
<rect x="203" y="1" width="58" height="58" rx="29" fill="#282B38" stroke="#363A4D" stroke-width="2"/>
<path d="M28.4398 25.56L26.1118 27.072L25.6798 26.52L29.3998 23.16H30.5998V39H28.4398V25.56Z" fill="white"/>
<path d="M125.121 38.8C125.969 37.984 126.617 37.368 127.065 36.952C128.649 35.432 129.809 34.272 130.545 33.472C131.281 32.672 131.857 31.848 132.273 31C132.705 30.152 132.921 29.232 132.921 28.24C132.921 27.088 132.617 26.2 132.009 25.576C131.417 24.952 130.681 24.64 129.801 24.64C128.825 24.64 127.977 24.992 127.257 25.696C126.553 26.4 126.081 27.408 125.841 28.72H125.361C125.361 27.92 125.393 27.288 125.457 26.824C125.521 26.344 125.681 25.936 125.937 25.6C126.385 25.056 127.025 24.6 127.857 24.232C128.705 23.864 129.593 23.68 130.521 23.68C131.785 23.68 132.897 24.016 133.857 24.688C134.833 25.344 135.321 26.528 135.321 28.24C135.321 29.248 135.081 30.192 134.601 31.072C134.137 31.952 133.529 32.776 132.777 33.544C132.041 34.296 130.993 35.272 129.633 36.472C128.225 37.736 127.281 38.592 126.801 39.04H132.201C133.177 39.04 133.921 38.832 134.433 38.416C134.945 38 135.201 37.368 135.201 36.52H135.681V38.08C135.681 39.36 135.001 40 133.641 40H125.121V38.8Z" fill="#BFBFBF"/>
<path d="M231.521 40.48C230.369 40.48 229.353 40.264 228.473 39.832C227.609 39.384 226.817 38.744 226.097 37.912L226.481 37.48C227.105 38.168 227.777 38.68 228.497 39.016C229.217 39.352 230.025 39.52 230.921 39.52C231.961 39.52 232.817 39.192 233.489 38.536C234.177 37.864 234.521 36.872 234.521 35.56C234.521 34.76 234.369 34.08 234.065 33.52C233.761 32.96 233.369 32.544 232.889 32.272C232.409 31.984 231.913 31.84 231.401 31.84C230.729 31.84 230.233 31.864 229.913 31.912C229.593 31.96 229.129 32.056 228.521 32.2L227.897 31.192L234.401 25.12H229.961C228.985 25.12 228.241 25.328 227.729 25.744C227.217 26.16 226.961 26.792 226.961 27.64H226.481V26.08C226.481 24.8 227.161 24.16 228.521 24.16H236.153V25.12L229.721 31.12C230.345 30.96 231.065 30.88 231.881 30.88C232.521 30.88 233.225 31.016 233.993 31.288C234.761 31.544 235.441 32.024 236.033 32.728C236.625 33.416 236.921 34.36 236.921 35.56C236.921 36.84 236.617 37.848 236.009 38.584C235.417 39.32 234.713 39.816 233.897 40.072C233.081 40.344 232.289 40.48 231.521 40.48Z" fill="#BFBFBF"/>
</svg>
